<svg preserveAspectRatio="none" xmlns="http://www.w3.org/2000/svg" viewBox="0 0 1920 165.224"><path d="M484.8 165.2h-.2a1158.1 1158.1 0 01-123-6.7A933.6 933.6 0 01258.8 141a670 670 0 01-150-53.6 501.2 501.2 0 01-49.3-28.6 393.9 393.9 0 01-33.8-25C16.6 26.2 0 7.1 0 0h1920v114.6s-9.8-7.3-27.3-17.7a675.7 675.7 0 00-77.8-39 726 726 0 00-197.4-51.8A731.7 731.7 0 001424 9.4c-25.2 3.7-50.8 8-78.4 13.1-24.6 4.6-50.2 9.6-78.3 15.6-52.2 11-105.8 23.4-157.5 35.5-96.1 22.3-195.5 45.3-298.8 62.6a2396.4 2396.4 0 01-158.6 21 1865.5 1865.5 0 01-167.5 8z" fill="#fff"/></svg>