<svg xmlns="http://www.w3.org/2000/svg" preserveAspectRatio="none" viewBox="0 0 1920 456.001"><path d="M1920 456H0V0h1920H0c.1.1 12 13.1 34.3 32.3a741 741 0 0099.7 71 743.8 743.8 0 00160 71 731.5 731.5 0 00258.7 31c82.7-4.8 151-10.2 211.2-15 46.8-3.6 87.2-6.8 127-9.2 44-2.6 81.6-3.8 118.2-3.8a1609 1609 0 01143.4 6.2c53.7 4.5 112.4 11.6 179.5 21.8a1173 1173 0 01123.3 25.3 1287.3 1287.3 0 01112.5 35A1436.2 1436.2 0 011754 348a1439.7 1439.7 0 01122.1 72.8c28.2 19 43.7 31.3 43.9 31.4v3.8z" fill="#fff"/></svg>