<svg viewBox="0 0 239.001 56.407"><path d="M22.513,6.182a1,1,0,0,1,1.975,0l2.948,18.453a1,1,0,0,0,.353.616L42.211,37.074a1,1,0,0,1-.992,1.707l-17.36-6.663a1,1,0,0,0-.717,0L5.781,38.781a1,1,0,0,1-.992-1.707L19.211,25.251a1,1,0,0,0,.353-.616Z" transform="translate(0)"/><path d="M22.513,6.182a1,1,0,0,1,1.975,0l2.948,18.453a1,1,0,0,0,.353.616L42.211,37.074a1,1,0,0,1-.992,1.707l-17.36-6.663a1,1,0,0,0-.717,0L5.781,38.781a1,1,0,0,1-.992-1.707L19.211,25.251a1,1,0,0,0,.353-.616Z" transform="matrix(-1, 0.017, -0.017, -1, 47.708, 55.587)"/><text transform="translate(55.001)" font-size="40" font-family="Montserrat-SemiBold, Montserrat" font-weight="600" letter-spacing="0.045em"><tspan x="-90.24" y="39">muon.io</tspan></text></svg>