<svg xmlns="http://www.w3.org/2000/svg" preserveAspectRatio="none" width="1920" height="456.001" viewBox="0 0 1920 456.001">
  <path d="M1920,456H0V0H1920L0,.01c.118.127,11.949,13.1,34.326,32.264C47.454,43.515,61.575,54.642,76.3,65.344c18.406,13.381,37.812,26.136,57.677,37.91a743.761,743.761,0,0,0,159.972,70.981c16.066,4.95,32.5,9.394,48.834,13.208,17.2,4.014,34.764,7.44,52.214,10.183,18.3,2.877,36.979,5.082,55.515,6.554,19.379,1.539,39.142,2.319,58.739,2.319,14.376,0,29.006-.42,43.482-1.248,82.692-4.729,150.952-10.122,211.177-14.88,46.767-3.695,87.156-6.885,127.037-9.248,43.985-2.606,81.532-3.819,118.164-3.819h.038c23.07,0,45.555.478,68.738,1.46,24.38,1.032,48.8,2.589,74.662,4.76,53.659,4.5,112.375,11.611,179.5,21.727,20.78,3.131,41.916,6.915,62.824,11.245,19.994,4.142,40.312,8.894,60.389,14.126,19.138,4.987,38.562,10.542,57.731,16.509,18.215,5.67,36.669,11.859,54.849,18.395a1436.247,1436.247,0,0,1,186.117,82.48c23.8,12.616,47.339,25.945,69.964,39.616,18.1,10.936,35.657,22.115,52.186,33.225,28.213,18.964,43.739,31.235,43.893,31.357V456Z" transform="translate(0 0)" fill="#fff"/>
</svg>
