<svg preserveAspectRatio="none" xmlns="http://www.w3.org/2000/svg" width="1920" height="165.224" viewBox="0 0 1920 165.224">
  <path d="M484.818,165.224h-.179c-21.678,0-43.241-.587-64.089-1.748-19.942-1.11-39.762-2.774-58.91-4.945-18.258-2.07-36.384-4.656-53.876-7.685-16.617-2.878-33.1-6.232-48.985-9.969C203.822,127.949,153.384,109.923,108.866,87.3A501.215,501.215,0,0,1,59.508,58.682,393.876,393.876,0,0,1,25.68,33.718C16.57,26.168.02,7.063,0,0H1920V114.606c-.094-.069-9.779-7.275-27.328-17.716-10.372-6.171-21.466-12.281-32.973-18.16-14.378-7.346-29.448-14.35-44.791-20.817A725.949,725.949,0,0,0,1617.531,6.092c-13.581-1.58-27.391-2.79-41.047-3.6-14.278-.845-28.783-1.274-43.112-1.274-17.712,0-35.693.654-53.443,1.944-18.585,1.351-37.434,3.437-56.025,6.2-25.186,3.742-50.829,8.04-78.392,13.138-24.6,4.551-50.212,9.646-78.289,15.575-52.229,11.03-105.775,23.459-157.558,35.478h-.006c-96.092,22.3-195.456,45.369-298.718,62.667-26.672,4.468-53.03,8.447-78.344,11.827-27.127,3.622-54.145,6.7-80.3,9.155-27.71,2.6-55.471,4.588-82.511,5.914C541.371,164.511,512.784,165.22,484.818,165.224Z" transform="translate(0 0)" fill="#fff"/>
</svg>
