<svg xmlns="http://www.w3.org/2000/svg" width="213.521" height="56.407" viewBox="0 0 213.521 56.407"><path d="M22.513,6.182a1,1,0,0,1,1.975,0l2.948,18.453a1,1,0,0,0,.353.616L42.211,37.074a1,1,0,0,1-.992,1.707l-17.36-6.663a1,1,0,0,0-.717,0L5.781,38.781a1,1,0,0,1-.992-1.707L19.211,25.251a1,1,0,0,0,.353-.616Z" transform="translate(0)" fill="#fff"/><path d="M22.513,6.182a1,1,0,0,1,1.975,0l2.948,18.453a1,1,0,0,0,.353.616L42.211,37.074a1,1,0,0,1-.992,1.707l-17.36-6.663a1,1,0,0,0-.717,0L5.781,38.781a1,1,0,0,1-.992-1.707L19.211,25.251a1,1,0,0,0,.353-.616Z" transform="matrix(-1, 0.017, -0.017, -1, 47.708, 55.587)" fill="#fff"/><path d="M30.24-21.6a9.97,9.97,0,0,0-8,3.56c-1.48-2.4-4.08-3.56-7.2-3.56a8.847,8.847,0,0,0-7,2.96v-2.72H3.28V0h5V-10.84c0-4.24,2.24-6.4,5.56-6.4,3.04,0,4.8,1.84,4.8,5.64V0h5V-10.84c0-4.24,2.28-6.4,5.56-6.4,3.04,0,4.8,1.84,4.8,5.64V0h5V-12.24C39-18.68,35.4-21.6,30.24-21.6Zm29.4.24v10.8c0,4.28-2.36,6.44-5.84,6.44-3.16,0-5-1.84-5-5.72V-21.36h-5v12.2C43.8-2.72,47.52.28,53,.28a8.726,8.726,0,0,0,6.88-3V0h4.76V-21.36ZM79.36.28c6.64,0,11.4-4.56,11.4-10.96S86-21.6,79.36-21.6C72.8-21.6,68-17.08,68-10.68S72.8.28,79.36.28Zm0-4.28c-3.6,0-6.32-2.6-6.32-6.68s2.72-6.68,6.32-6.68c3.64,0,6.36,2.6,6.36,6.68S83-4,79.36-4Zm26.88-17.6a9.288,9.288,0,0,0-7.36,3v-2.76H94.12V0h5V-10.8c0-4.28,2.4-6.44,5.96-6.44,3.2,0,5.08,1.84,5.08,5.64V0h5V-12.24C115.16-18.68,111.36-21.6,106.24-21.6ZM121.68.28a3.253,3.253,0,0,0,3.28-3.32,3.205,3.205,0,0,0-3.28-3.32,3.205,3.205,0,0,0-3.28,3.32A3.253,3.253,0,0,0,121.68.28Zm9.24-25.16a3.07,3.07,0,0,0,3.2-3.12,2.977,2.977,0,0,0-3.2-2.88,3.046,3.046,0,0,0-3.2,3A3.046,3.046,0,0,0,130.92-24.88ZM128.4,0h5V-21.36h-5Zm19.72.28c6.64,0,11.4-4.56,11.4-10.96s-4.76-10.92-11.4-10.92c-6.56,0-11.36,4.52-11.36,10.92S141.56.28,148.12.28Zm0-4.28c-3.6,0-6.32-2.6-6.32-6.68s2.72-6.68,6.32-6.68c3.64,0,6.36,2.6,6.36,6.68S151.76-4,148.12-4Z" transform="translate(54 36.88)" fill="#fff"/></svg>